<svg width="126.000000" height="72.000000" viewBox="0 0 126 72" fill="none" xmlns="http://www.w3.org/2000/svg" xmlns:xlink="http://www.w3.org/1999/xlink">
	<desc>
			Created with Pixso.
	</desc>
	<defs/>
	<path id="Vector" d="M44.39 49.05C44.21 48.71 44.03 48.42 43.91 48.08C43.07 46.15 43.07 44.68 43.37 42.8C43.61 41.44 43.55 40.76 43.13 40.24C42.65 39.68 41.93 39.62 40.91 39.51L40.73 39.51C40.43 39.45 40.13 39.45 39.89 39.45C37.55 39.34 36.22 39.39 35.62 40.24C35.02 41.04 35.44 42.23 36.28 43.94C36.7 44.79 36.88 45.64 37 46.27C35.98 46.32 34.78 46.78 33.34 47.35C30.4 48.48 26.37 50.07 21.45 48.65C15.62 47 10.76 42.63 8.11 40.24C6.85 39.11 6.31 38.6 5.89 38.48C5.29 38.31 4.51 38.71 4.09 38.94L3.85 39.05C3.55 39.28 3.13 39.62 2.95 40.02C2.53 41.32 2.47 43.77 3.49 46.49C3.13 46.32 2.89 46.27 2.65 46.21C2.05 46.15 1.39 46.61 0.84 47.12L0.66 47.29C0.36 47.57 0 48.03 0 48.48C-0.12 50.58 0.96 53.88 3.55 56.95L3.49 56.95C2.89 57.06 2.35 57.74 1.99 58.37L1.99 58.59C1.81 58.99 1.63 59.5 1.69 59.96C2.29 62.29 4.75 65.64 8.89 67.97C11.42 69.39 15.26 70.75 20.55 70.75C22.89 70.75 25.53 70.47 28.42 69.78C35.26 68.19 41.63 63.59 44.21 58.2C45.83 55.01 45.89 51.83 44.39 49.05ZM4.03 40.3C4.03 40.3 4.09 40.24 4.09 40.19C4.21 40.41 4.39 40.7 4.57 40.98C6.13 43.65 9.55 49.67 17.6 52.69C12.62 51.49 8.17 49.05 5.53 47.57C5.35 47.46 5.17 47.35 4.99 47.29C3.73 44.5 3.55 41.78 4.03 40.3ZM1.15 48.6C1.15 48.6 1.15 48.48 1.27 48.37C1.45 48.54 1.75 48.88 2.05 49.16C4.57 51.83 10.52 58.14 21.39 58.76C21.75 58.76 22.05 58.76 22.41 58.76C23.49 58.76 24.63 58.65 25.65 58.42C25.53 58.48 25.35 58.48 25.23 58.54C18.44 60.07 10.94 58.37 6.91 57.46C6.25 57.29 5.71 57.17 5.29 57.12C2.23 54.11 1.03 50.58 1.15 48.6ZM43.25 57.85C40.79 62.91 34.78 67.34 28.24 68.82C11.54 72.63 3.73 63.48 2.77 59.73C2.77 59.67 2.77 59.62 2.83 59.45C3.13 59.56 3.49 59.79 3.85 60.01C7.27 62 15.26 66.6 26.37 64.05C33.7 62.4 37.43 57.06 39.59 53.14C39.71 52.91 39.65 52.57 39.35 52.46C39.11 52.34 38.75 52.4 38.63 52.69C36.58 56.38 32.98 61.49 26.07 63.08C15.38 65.52 7.69 61.04 4.39 59.16C3.91 58.88 3.55 58.65 3.25 58.54C3.49 58.2 3.73 57.97 3.85 57.97C4.15 57.91 5.41 58.2 6.61 58.48C9.49 59.16 14.18 60.18 19.17 60.18C21.21 60.18 23.37 60.01 25.41 59.5C30.7 58.31 33.82 55.3 36.34 52.23C36.52 52 36.46 51.66 36.22 51.49C35.98 51.32 35.62 51.38 35.44 51.61C35.2 51.89 34.9 52.23 34.66 52.51C30.4 56.26 26.01 57.97 21.33 57.68C10.94 57.12 5.17 51.04 2.71 48.42C2.35 48.03 2.11 47.8 1.87 47.57C2.17 47.35 2.41 47.23 2.53 47.23C2.83 47.29 3.85 47.86 4.87 48.42C8.35 50.36 14.84 53.94 21.69 54.33C22.05 54.33 22.35 54.33 22.71 54.33C25.11 54.33 27.15 53.88 28.96 53.14L29.02 53.14C29.08 53.14 29.08 53.08 29.14 53.08C31.42 52.17 33.22 50.92 34.78 49.9C35.32 49.56 35.8 49.22 36.22 48.94C36.46 48.77 36.52 48.48 36.4 48.25C36.22 48.03 35.92 47.97 35.68 48.08C35.2 48.37 34.72 48.71 34.18 49.05C32.62 50.07 30.82 51.32 28.54 52.17C25.59 53.03 22.71 53.08 19.95 52.29C10.82 49.73 7.09 43.2 5.47 40.41C5.23 40.02 5.11 39.73 4.93 39.51C5.23 39.39 5.41 39.34 5.53 39.34C5.77 39.45 6.55 40.13 7.33 40.87C9.97 43.26 14.96 47.74 21.03 49.45C22.53 49.84 23.97 50.02 25.29 50.02C28.66 50.02 31.42 48.94 33.64 48.08C35.2 47.46 36.52 46.95 37.43 47.12L37.49 47.12L37.55 47.12C37.55 47.12 37.55 47.12 37.61 47.12C37.67 47.12 37.67 47.12 37.73 47.06C37.73 47.06 37.79 47.06 37.79 47C37.85 47 37.85 46.95 37.91 46.95L37.97 46.89C37.97 46.89 38.03 46.83 38.03 46.78C38.03 46.72 38.03 46.72 38.09 46.66C38.09 46.66 38.09 46.66 38.09 46.61L38.09 46.55L38.09 46.49C38.03 45.81 37.85 44.45 37.25 43.2C36.95 42.57 36.16 40.98 36.52 40.53C36.82 40.07 38.45 40.13 39.89 40.19C40.13 40.19 40.37 40.19 40.61 40.24L40.79 40.24C41.57 40.3 42.11 40.41 42.29 40.59C42.47 40.81 42.47 41.38 42.35 42.35C41.99 44.33 41.99 46.04 42.95 48.2C43.07 48.54 43.25 48.88 43.43 49.22C44.75 52 44.69 54.84 43.25 57.85Z" fill="#333B41" fill-opacity="1.000000" fill-rule="nonzero"/>
	<path id="Vector" d="M43.91 48.08C43.07 46.15 43.07 44.68 43.37 42.8C43.61 41.44 43.55 40.76 43.13 40.24C42.65 39.68 41.93 39.62 40.91 39.51L40.73 39.51C40.43 39.45 40.13 39.45 39.89 39.45C37.55 39.34 36.22 39.39 35.62 40.24C35.02 41.04 35.44 42.23 36.28 43.94C36.7 44.79 36.88 45.64 37 46.27C35.98 46.32 34.78 46.78 33.34 47.35C30.4 48.48 26.37 50.07 21.45 48.65C15.62 47 10.76 42.63 8.11 40.24C6.85 39.11 6.31 38.6 5.89 38.48C5.29 38.31 4.51 38.71 4.09 38.94L3.85 39.05C3.55 39.28 3.13 39.62 2.95 40.02C2.53 41.32 2.47 43.77 3.49 46.49C3.13 46.32 2.89 46.27 2.65 46.21C2.05 46.15 1.39 46.61 0.84 47.12L0.66 47.29C0.36 47.57 0 48.03 0 48.48C-0.12 50.58 0.96 53.88 3.55 56.95L3.49 56.95C2.89 57.06 2.35 57.74 1.99 58.37L1.99 58.59C1.81 58.99 1.63 59.5 1.69 59.96C2.29 62.29 4.75 65.64 8.89 67.97C11.42 69.39 15.26 70.75 20.55 70.75C22.89 70.75 25.53 70.47 28.42 69.78C35.26 68.19 41.63 63.59 44.21 58.2C45.83 55.01 45.89 51.83 44.39 49.05C44.21 48.71 44.03 48.42 43.91 48.08ZM4.09 40.19C4.21 40.41 4.39 40.7 4.57 40.98C6.13 43.65 9.55 49.67 17.6 52.69C12.62 51.49 8.17 49.05 5.53 47.57C5.35 47.46 5.17 47.35 4.99 47.29C3.73 44.5 3.55 41.78 4.03 40.3C4.03 40.3 4.09 40.24 4.09 40.19ZM1.27 48.37C1.45 48.54 1.75 48.88 2.05 49.16C4.57 51.83 10.52 58.14 21.39 58.76C21.75 58.76 22.05 58.76 22.41 58.76C23.49 58.76 24.63 58.65 25.65 58.42C25.53 58.48 25.35 58.48 25.23 58.54C18.44 60.07 10.94 58.37 6.91 57.46C6.25 57.29 5.71 57.17 5.29 57.12C2.23 54.11 1.03 50.58 1.15 48.6C1.15 48.6 1.15 48.48 1.27 48.37ZM28.24 68.82C11.54 72.63 3.73 63.48 2.77 59.73C2.77 59.67 2.77 59.62 2.83 59.45C3.13 59.56 3.49 59.79 3.85 60.01C7.27 62 15.26 66.6 26.37 64.05C33.7 62.4 37.43 57.06 39.59 53.14C39.71 52.91 39.65 52.57 39.35 52.46C39.11 52.34 38.75 52.4 38.63 52.69C36.58 56.38 32.98 61.49 26.07 63.08C15.38 65.52 7.69 61.04 4.39 59.16C3.91 58.88 3.55 58.65 3.25 58.54C3.49 58.2 3.73 57.97 3.85 57.97C4.15 57.91 5.41 58.2 6.61 58.48C9.49 59.16 14.18 60.18 19.17 60.18C21.21 60.18 23.37 60.01 25.41 59.5C30.7 58.31 33.82 55.3 36.34 52.23C36.52 52 36.46 51.66 36.22 51.49C35.98 51.32 35.62 51.38 35.44 51.61C35.2 51.89 34.9 52.23 34.66 52.51C30.4 56.26 26.01 57.97 21.33 57.68C10.94 57.12 5.17 51.04 2.71 48.42C2.35 48.03 2.11 47.8 1.87 47.57C2.17 47.35 2.41 47.23 2.53 47.23C2.83 47.29 3.85 47.86 4.87 48.42C8.35 50.36 14.84 53.94 21.69 54.33C22.05 54.33 22.35 54.33 22.71 54.33C25.11 54.33 27.15 53.88 28.96 53.14L29.02 53.14C29.08 53.14 29.08 53.08 29.14 53.08C31.42 52.17 33.22 50.92 34.78 49.9C35.32 49.56 35.8 49.22 36.22 48.94C36.46 48.77 36.52 48.48 36.4 48.25C36.22 48.03 35.92 47.97 35.68 48.08C35.2 48.37 34.72 48.71 34.18 49.05C32.62 50.07 30.82 51.32 28.54 52.17C25.59 53.03 22.71 53.08 19.95 52.29C10.82 49.73 7.09 43.2 5.47 40.41C5.23 40.02 5.11 39.73 4.93 39.51C5.23 39.39 5.41 39.34 5.53 39.34C5.77 39.45 6.55 40.13 7.33 40.87C9.97 43.26 14.96 47.74 21.03 49.45C22.53 49.84 23.97 50.02 25.29 50.02C28.66 50.02 31.42 48.94 33.64 48.08C35.2 47.46 36.52 46.95 37.43 47.12L37.49 47.12L37.55 47.12C37.55 47.12 37.55 47.12 37.61 47.12C37.67 47.12 37.67 47.12 37.73 47.06C37.73 47.06 37.79 47.06 37.79 47C37.85 47 37.85 46.95 37.91 46.95L37.97 46.89C37.97 46.89 38.03 46.83 38.03 46.78C38.03 46.72 38.03 46.72 38.09 46.66C38.09 46.66 38.09 46.66 38.09 46.61L38.09 46.55L38.09 46.49C38.03 45.81 37.85 44.45 37.25 43.2C36.95 42.57 36.16 40.98 36.52 40.53C36.82 40.07 38.45 40.13 39.89 40.19C40.13 40.19 40.37 40.19 40.61 40.24L40.79 40.24C41.57 40.3 42.11 40.41 42.29 40.59C42.47 40.81 42.47 41.38 42.35 42.35C41.99 44.33 41.99 46.04 42.95 48.2C43.07 48.54 43.25 48.88 43.43 49.22C44.75 52 44.69 54.84 43.25 57.85C40.79 62.91 34.78 67.34 28.24 68.82Z" stroke="#333B41" stroke-opacity="1.000000" stroke-width="0.700000"/>
	<path id="Vector" d="M41.69 56.89C41.45 56.78 41.09 56.89 40.97 57.12C38.69 61.77 33.1 65.86 27.04 67.23C26.74 67.28 26.55 67.57 26.61 67.85C26.67 68.08 26.92 68.25 27.16 68.25C27.22 68.25 27.22 68.25 27.28 68.25C33.7 66.83 39.59 62.51 41.99 57.57C42.11 57.34 41.99 57.06 41.69 56.89Z" fill="#333B41" fill-opacity="1.000000" fill-rule="nonzero"/>
	<path id="Vector" d="M40.97 57.12C38.69 61.77 33.1 65.86 27.04 67.23C26.74 67.28 26.55 67.57 26.61 67.85C26.67 68.08 26.92 68.25 27.16 68.25C27.22 68.25 27.22 68.25 27.28 68.25C33.7 66.83 39.59 62.51 41.99 57.57C42.11 57.34 41.99 57.06 41.69 56.89C41.45 56.78 41.09 56.89 40.97 57.12Z" stroke="#333B41" stroke-opacity="1.000000" stroke-width="0.700000"/>
	<path id="Vector" d="M67.62 0C64.42 -0.1 61.28 0.82 58.64 2.64C56 4.45 54 7.06 52.94 10.09C52.89 10.23 52.8 10.36 52.68 10.45C52.57 10.55 52.43 10.61 52.28 10.64C50.66 10.91 49.19 11.76 48.14 13.03C47.08 14.29 46.52 15.9 46.53 17.55C46.55 19.2 47.16 20.79 48.24 22.03C49.32 23.27 50.81 24.09 52.44 24.32C52.6 24.35 52.75 24.42 52.87 24.53C52.99 24.64 53.08 24.78 53.12 24.94C53.92 27.92 55.64 30.56 58.02 32.5C60.41 34.43 63.35 35.56 66.41 35.72C65.75 38.17 65.34 40.69 65.2 43.23L60.14 42.43C59.08 42.26 57.99 42.52 57.11 43.16C56.24 43.79 55.65 44.75 55.49 45.82C55.32 46.9 55.58 47.99 56.21 48.87C56.85 49.74 57.8 50.33 58.87 50.5L65.74 51.59C65.94 52.66 66.18 53.72 66.47 54.77C64.91 56.47 64.04 58.71 64.04 61.03L64.04 62.48C64.04 62.7 63.95 62.91 63.8 63.07C63.64 63.23 63.43 63.32 63.2 63.32L62.7 63.32C62.11 63.32 61.52 63.43 60.97 63.66C60.42 63.89 59.92 64.23 59.5 64.65C59.08 65.07 58.75 65.57 58.52 66.12C58.29 66.67 58.17 67.27 58.17 67.86L58.17 69.05C58.17 69.38 58.24 69.72 58.37 70.03C58.49 70.33 58.68 70.62 58.92 70.85C59.15 71.09 59.43 71.28 59.74 71.41C60.05 71.53 60.38 71.6 60.72 71.6L92.92 71.6C97.25 71.6 101.53 70.68 105.48 68.9C109.43 67.13 112.96 64.53 115.84 61.29C120.41 56.7 123.45 50.81 124.58 44.43C125.27 38.88 123.77 33.28 120.4 28.83C117.77 25.44 114.2 22.91 110.13 21.57C107.33 20.72 104.32 20.79 101.56 21.77C98.8 22.76 96.42 24.6 94.77 27.03C94.46 27.49 94.24 28.01 94.12 28.56C94.01 29.1 94 29.67 94.11 30.21C94.21 30.76 94.42 31.29 94.73 31.75C95.03 32.22 95.42 32.62 95.88 32.93C96.34 33.25 96.86 33.47 97.4 33.58C97.95 33.7 98.51 33.7 99.06 33.6C99.6 33.49 100.12 33.28 100.59 32.97C101.05 32.67 101.45 32.27 101.76 31.81C102.39 30.88 103.29 30.18 104.34 29.8C105.39 29.41 106.53 29.37 107.6 29.67C110.01 30.5 112.12 32 113.69 34.01C115.66 36.63 116.56 39.91 116.21 43.17C115.34 47.84 113.06 52.13 109.68 55.46C106.45 59.17 102.09 61.71 97.27 62.67C97.23 62.68 97.19 62.68 97.15 62.67C97.11 62.66 97.08 62.63 97.05 62.6C97.02 62.58 97 62.54 96.99 62.5C96.98 62.46 96.98 62.42 96.99 62.38C98.47 56.13 98.05 49.57 95.78 43.56C94.61 39.79 92.66 36.31 90.07 33.35C87.47 30.39 84.28 28.01 80.7 26.37C80.88 25.9 81.03 25.42 81.16 24.94C81.2 24.78 81.29 24.64 81.41 24.53C81.54 24.42 81.69 24.35 81.85 24.32C83.48 24.09 84.97 23.27 86.05 22.03C87.13 20.79 87.73 19.2 87.75 17.55C87.77 15.9 87.2 14.29 86.15 13.03C85.09 11.76 83.62 10.91 82 10.64C81.85 10.61 81.71 10.55 81.6 10.45C81.48 10.36 81.4 10.23 81.35 10.09C80.34 7.21 78.49 4.71 76.04 2.91C73.59 1.11 70.65 0.1 67.62 0ZM66.68 1.11C69.64 1.01 72.56 1.87 75.01 3.55C77.45 5.23 79.3 7.65 80.29 10.46C80.4 10.79 80.6 11.08 80.87 11.3C81.14 11.53 81.46 11.67 81.8 11.73C83.16 11.96 84.39 12.67 85.28 13.74C86.16 14.8 86.64 16.15 86.63 17.53C86.61 18.92 86.11 20.25 85.2 21.3C84.29 22.34 83.04 23.02 81.68 23.23C81.3 23.28 80.95 23.44 80.66 23.7C80.38 23.95 80.18 24.28 80.08 24.65C79.66 26.22 78.96 27.7 78.01 29.03C78.14 26.44 77.25 23.9 75.53 21.97C75.51 21.94 75.49 21.91 75.49 21.88C75.48 21.85 75.48 21.82 75.48 21.78C75.49 21.75 75.5 21.72 75.52 21.69C75.54 21.66 75.56 21.64 75.59 21.62C76.95 20.45 77.83 18.8 78.04 17.01C78.26 15.21 77.79 13.4 76.74 11.94C75.68 10.48 74.12 9.46 72.36 9.1C70.59 8.74 68.76 9.06 67.22 9.99C67 10.12 66.74 10.19 66.48 10.19C66.22 10.19 65.96 10.12 65.74 9.99L65.72 9.99C64.18 9.06 62.35 8.75 60.59 9.11C58.83 9.47 57.27 10.48 56.22 11.95C55.17 13.41 54.7 15.22 54.91 17.01C55.12 18.8 56 20.45 57.36 21.62C57.39 21.64 57.4 21.67 57.42 21.7C57.43 21.73 57.43 21.76 57.43 21.8C57.43 21.83 57.43 21.86 57.42 21.89C57.4 21.92 57.39 21.95 57.36 21.97C56.13 23.36 55.31 25.08 55 26.92C54.66 26.19 54.38 25.43 54.17 24.65C54.07 24.28 53.87 23.95 53.59 23.7C53.3 23.45 52.95 23.28 52.58 23.23C51.21 23.02 49.96 22.34 49.06 21.3C48.15 20.25 47.64 18.92 47.63 17.53C47.61 16.15 48.09 14.8 48.97 13.74C49.86 12.67 51.09 11.96 52.45 11.73C52.8 11.67 53.12 11.52 53.38 11.3C53.65 11.08 53.85 10.79 53.96 10.46C54.9 7.79 56.61 5.48 58.88 3.81C61.15 2.14 63.87 1.2 66.68 1.11ZM61.81 10.06C61.97 10.06 62.12 10.06 62.28 10.06C63.29 10.11 64.28 10.41 65.15 10.94C65.55 11.17 66 11.3 66.46 11.3C66.92 11.3 67.37 11.17 67.77 10.94C69.07 10.15 70.62 9.89 72.11 10.19C73.6 10.5 74.92 11.36 75.81 12.6C76.7 13.83 77.09 15.36 76.91 16.88C76.73 18.39 75.99 19.78 74.84 20.78C74.7 20.9 74.59 21.04 74.51 21.2C74.43 21.36 74.39 21.54 74.38 21.72C74.37 21.9 74.39 22.08 74.45 22.25C74.51 22.42 74.6 22.57 74.72 22.71C75.66 23.77 76.34 25.04 76.68 26.42C77.02 27.8 77.02 29.24 76.68 30.62C75.29 32.04 73.59 33.13 71.72 33.81C69.85 34.5 67.85 34.75 65.87 34.56C63.89 34.37 61.97 33.74 60.27 32.72C58.56 31.69 57.1 30.3 55.99 28.64C55.97 26.45 56.76 24.34 58.21 22.71C58.33 22.57 58.42 22.41 58.48 22.24C58.53 22.07 58.56 21.89 58.55 21.71C58.53 21.53 58.49 21.36 58.41 21.2C58.33 21.04 58.21 20.89 58.08 20.78C57.15 19.98 56.48 18.92 56.16 17.74C55.84 16.55 55.89 15.3 56.29 14.14C56.69 12.98 57.44 11.97 58.42 11.24C59.41 10.52 60.59 10.1 61.81 10.06L61.81 10.06ZM106.06 22.09C107.33 22.08 108.59 22.26 109.81 22.63C113.65 23.91 117.03 26.3 119.52 29.51C122.71 33.72 124.13 39.01 123.49 44.26C122.4 50.42 119.45 56.1 115.04 60.53C112.26 63.66 108.85 66.17 105.04 67.89C101.23 69.6 97.1 70.49 92.92 70.49L60.72 70.49C60.53 70.49 60.34 70.45 60.17 70.38C59.99 70.31 59.84 70.2 59.7 70.07C59.57 69.93 59.46 69.78 59.39 69.6C59.32 69.43 59.28 69.24 59.28 69.05L59.28 67.86C59.28 67.41 59.37 66.96 59.54 66.55C59.71 66.13 59.97 65.75 60.28 65.43C60.6 65.11 60.98 64.86 61.4 64.69C61.81 64.52 62.26 64.43 62.71 64.43L63.21 64.43C63.46 64.43 63.72 64.38 63.95 64.28C64.19 64.18 64.4 64.04 64.58 63.86C64.76 63.68 64.91 63.46 65.01 63.22C65.1 62.99 65.15 62.73 65.15 62.48L65.15 61.03C65.2 58.9 66.08 56.88 67.59 55.4C69.11 53.91 71.14 53.08 73.26 53.08C75.38 53.08 77.41 53.91 78.93 55.4C80.45 56.88 81.32 58.9 81.37 61.03L81.37 63.51C81.37 63.65 81.43 63.79 81.54 63.89C81.64 63.99 81.78 64.04 81.92 64.04C82.07 64.04 82.21 63.99 82.31 63.89C82.41 63.79 82.47 63.65 82.48 63.51L82.48 61.03C82.48 59.41 82.05 57.82 81.25 56.41C80.44 55.01 79.28 53.84 77.89 53.03C78.74 52.83 79.54 52.45 80.24 51.94C80.95 51.42 81.54 50.76 81.99 50.01C82.44 49.26 82.73 48.42 82.85 47.55C82.97 46.68 82.91 45.8 82.68 44.95C82.09 42.76 81.27 40.64 80.24 38.61C80.18 38.48 80.06 38.38 79.92 38.34C79.78 38.29 79.63 38.31 79.5 38.37C79.37 38.44 79.27 38.56 79.23 38.7C79.18 38.84 79.19 38.99 79.26 39.12C80.25 41.07 81.04 43.13 81.61 45.24C81.85 46.12 81.86 47.04 81.65 47.92C81.44 48.8 81.02 49.61 80.42 50.29C79.81 50.96 79.05 51.47 78.2 51.78C77.35 52.08 76.44 52.17 75.55 52.03L59.05 49.41C58.27 49.28 57.58 48.85 57.12 48.21C56.66 47.57 56.47 46.78 56.59 46C56.71 45.22 57.14 44.52 57.77 44.06C58.41 43.6 59.2 43.4 59.98 43.52L72.68 45.54C72.82 45.56 72.97 45.52 73.09 45.44C73.2 45.35 73.28 45.22 73.31 45.08C73.33 44.93 73.29 44.78 73.21 44.67C73.12 44.55 72.99 44.47 72.85 44.44L66.31 43.4C66.43 40.81 66.86 38.23 67.56 35.73C70.24 35.65 72.84 34.83 75.09 33.36C77.33 31.89 79.12 29.82 80.27 27.39C83.7 28.97 86.77 31.25 89.26 34.1C91.75 36.95 93.62 40.3 94.73 43.92C96.94 49.73 97.35 56.07 95.91 62.12C95.86 62.34 95.87 62.57 95.93 62.79C95.98 63.01 96.1 63.21 96.25 63.38C96.41 63.54 96.61 63.66 96.82 63.73C97.04 63.8 97.27 63.81 97.49 63.76C102.53 62.76 107.1 60.1 110.49 56.22C114.02 52.73 116.4 48.23 117.3 43.33C117.7 39.77 116.72 36.2 114.57 33.34C112.86 31.15 110.55 29.5 107.93 28.61C106.63 28.24 105.25 28.29 103.98 28.75C102.71 29.21 101.62 30.06 100.86 31.18C100.62 31.53 100.33 31.82 99.99 32.04C99.64 32.27 99.26 32.43 98.85 32.5C98.45 32.58 98.04 32.58 97.63 32.49C97.23 32.41 96.85 32.25 96.51 32.01C96.17 31.78 95.88 31.48 95.66 31.14C95.43 30.8 95.28 30.41 95.2 30C95.12 29.6 95.13 29.18 95.21 28.78C95.29 28.38 95.46 27.99 95.69 27.65C96.84 25.95 98.38 24.56 100.19 23.59C102 22.62 104.01 22.11 106.06 22.09ZM66.91 51.78L70.21 52.3C69.18 52.66 68.23 53.2 67.39 53.9C67.21 53.2 67.05 52.49 66.91 51.78L66.91 51.78Z" fill="#333B41" fill-opacity="1.000000" fill-rule="nonzero"/>
	<path id="Vector" d="M58.64 2.64C56 4.45 54 7.06 52.94 10.09C52.89 10.23 52.8 10.36 52.68 10.45C52.57 10.55 52.43 10.61 52.28 10.64C50.66 10.91 49.19 11.76 48.14 13.03C47.08 14.29 46.52 15.9 46.53 17.55C46.55 19.2 47.16 20.79 48.24 22.03C49.32 23.27 50.81 24.09 52.44 24.32C52.6 24.35 52.75 24.42 52.87 24.53C52.99 24.64 53.08 24.78 53.12 24.94C53.92 27.92 55.64 30.56 58.02 32.5C60.41 34.43 63.35 35.56 66.41 35.72C65.75 38.17 65.34 40.69 65.2 43.23L60.14 42.43C59.08 42.26 57.99 42.52 57.11 43.16C56.24 43.79 55.65 44.75 55.49 45.82C55.32 46.9 55.58 47.99 56.21 48.87C56.85 49.74 57.8 50.33 58.87 50.5L65.74 51.59C65.94 52.66 66.18 53.72 66.47 54.77C64.91 56.47 64.04 58.71 64.04 61.03L64.04 62.48C64.04 62.7 63.95 62.91 63.8 63.07C63.64 63.23 63.43 63.32 63.2 63.32L62.7 63.32C62.11 63.32 61.52 63.43 60.97 63.66C60.42 63.89 59.92 64.23 59.5 64.65C59.08 65.07 58.75 65.57 58.52 66.12C58.29 66.67 58.17 67.27 58.17 67.86L58.17 69.05C58.17 69.38 58.24 69.72 58.37 70.03C58.49 70.33 58.68 70.62 58.92 70.85C59.15 71.09 59.43 71.28 59.74 71.41C60.05 71.53 60.38 71.6 60.72 71.6L92.92 71.6C97.25 71.6 101.53 70.68 105.48 68.9C109.43 67.13 112.96 64.53 115.84 61.29C120.41 56.7 123.45 50.81 124.58 44.43C125.27 38.88 123.77 33.28 120.4 28.83C117.77 25.44 114.2 22.91 110.13 21.57C107.33 20.72 104.32 20.79 101.56 21.77C98.8 22.76 96.42 24.6 94.77 27.03C94.46 27.49 94.24 28.01 94.12 28.56C94.01 29.1 94 29.67 94.11 30.21C94.21 30.76 94.42 31.29 94.73 31.75C95.03 32.22 95.42 32.62 95.88 32.93C96.34 33.25 96.86 33.47 97.4 33.58C97.95 33.7 98.51 33.7 99.06 33.6C99.6 33.49 100.12 33.28 100.59 32.97C101.05 32.67 101.45 32.27 101.76 31.81C102.39 30.88 103.29 30.18 104.34 29.8C105.39 29.41 106.53 29.37 107.6 29.67C110.01 30.5 112.12 32 113.69 34.01C115.66 36.63 116.56 39.91 116.21 43.17C115.34 47.84 113.06 52.13 109.68 55.46C106.45 59.17 102.09 61.71 97.27 62.67C97.23 62.68 97.19 62.68 97.15 62.67C97.11 62.66 97.08 62.63 97.05 62.6C97.02 62.58 97 62.54 96.99 62.5C96.98 62.46 96.98 62.42 96.99 62.38C98.47 56.13 98.05 49.57 95.78 43.56C94.61 39.79 92.66 36.31 90.07 33.35C87.47 30.39 84.28 28.01 80.7 26.37C80.88 25.9 81.03 25.42 81.16 24.94C81.2 24.78 81.29 24.64 81.41 24.53C81.54 24.42 81.69 24.35 81.85 24.32C83.48 24.09 84.97 23.27 86.05 22.03C87.13 20.79 87.73 19.2 87.75 17.55C87.77 15.9 87.2 14.29 86.15 13.03C85.09 11.76 83.62 10.91 82 10.64C81.85 10.61 81.71 10.55 81.6 10.45C81.48 10.36 81.4 10.23 81.35 10.09C80.34 7.21 78.49 4.71 76.04 2.91C73.59 1.11 70.65 0.1 67.62 0C64.42 -0.1 61.28 0.82 58.64 2.64ZM75.01 3.55C77.45 5.23 79.3 7.65 80.29 10.46C80.4 10.79 80.6 11.08 80.87 11.3C81.14 11.53 81.46 11.67 81.8 11.73C83.16 11.96 84.39 12.67 85.28 13.74C86.16 14.8 86.64 16.15 86.63 17.53C86.61 18.92 86.11 20.25 85.2 21.3C84.29 22.34 83.04 23.02 81.68 23.23C81.3 23.28 80.95 23.44 80.66 23.7C80.38 23.95 80.18 24.28 80.08 24.65C79.66 26.22 78.96 27.7 78.01 29.03C78.14 26.44 77.25 23.9 75.53 21.97C75.51 21.94 75.49 21.91 75.49 21.88C75.48 21.85 75.48 21.82 75.48 21.78C75.49 21.75 75.5 21.72 75.52 21.69C75.54 21.66 75.56 21.64 75.59 21.62C76.95 20.45 77.83 18.8 78.04 17.01C78.26 15.21 77.79 13.4 76.74 11.94C75.68 10.48 74.12 9.46 72.36 9.1C70.59 8.74 68.76 9.06 67.22 9.99C67 10.12 66.74 10.19 66.48 10.19C66.22 10.19 65.96 10.12 65.74 9.99L65.72 9.99C64.18 9.06 62.35 8.75 60.59 9.11C58.83 9.47 57.27 10.48 56.22 11.95C55.17 13.41 54.7 15.22 54.91 17.01C55.12 18.8 56 20.45 57.36 21.62C57.39 21.64 57.4 21.67 57.42 21.7C57.43 21.73 57.43 21.76 57.43 21.8C57.43 21.83 57.43 21.86 57.42 21.89C57.4 21.92 57.39 21.95 57.36 21.97C56.13 23.36 55.31 25.08 55 26.92C54.66 26.19 54.38 25.43 54.17 24.65C54.07 24.28 53.87 23.95 53.59 23.7C53.3 23.45 52.95 23.28 52.58 23.23C51.21 23.02 49.96 22.34 49.06 21.3C48.15 20.25 47.64 18.92 47.63 17.53C47.61 16.15 48.09 14.8 48.97 13.74C49.86 12.67 51.09 11.96 52.45 11.73C52.8 11.67 53.12 11.52 53.38 11.3C53.65 11.08 53.85 10.79 53.96 10.46C54.9 7.79 56.61 5.48 58.88 3.81C61.15 2.14 63.87 1.2 66.68 1.11C69.64 1.01 72.56 1.87 75.01 3.55ZM62.28 10.06C63.29 10.11 64.28 10.41 65.15 10.94C65.55 11.17 66 11.3 66.46 11.3C66.92 11.3 67.37 11.17 67.77 10.94C69.07 10.15 70.62 9.89 72.11 10.19C73.6 10.5 74.92 11.36 75.81 12.6C76.7 13.83 77.09 15.36 76.91 16.88C76.73 18.39 75.99 19.78 74.84 20.78C74.7 20.9 74.59 21.04 74.51 21.2C74.43 21.36 74.39 21.54 74.38 21.72C74.37 21.9 74.39 22.08 74.45 22.25C74.51 22.42 74.6 22.57 74.72 22.71C75.66 23.77 76.34 25.04 76.68 26.42C77.02 27.8 77.02 29.24 76.68 30.62C75.29 32.04 73.59 33.13 71.72 33.81C69.85 34.5 67.85 34.75 65.87 34.56C63.89 34.37 61.97 33.74 60.27 32.72C58.56 31.69 57.1 30.3 55.99 28.64C55.97 26.45 56.76 24.34 58.21 22.71C58.33 22.57 58.42 22.41 58.48 22.24C58.53 22.07 58.56 21.89 58.55 21.71C58.53 21.53 58.49 21.36 58.41 21.2C58.33 21.04 58.21 20.89 58.08 20.78C57.15 19.98 56.48 18.92 56.16 17.74C55.84 16.55 55.89 15.3 56.29 14.14C56.69 12.98 57.44 11.97 58.42 11.24C59.41 10.52 60.59 10.1 61.81 10.06L61.81 10.06C61.97 10.06 62.12 10.06 62.28 10.06ZM109.81 22.63C113.65 23.91 117.03 26.3 119.52 29.51C122.71 33.72 124.13 39.01 123.49 44.26C122.4 50.42 119.45 56.1 115.04 60.53C112.26 63.66 108.85 66.17 105.04 67.89C101.23 69.6 97.1 70.49 92.92 70.49L60.72 70.49C60.53 70.49 60.34 70.45 60.17 70.38C59.99 70.31 59.84 70.2 59.7 70.07C59.57 69.93 59.46 69.78 59.39 69.6C59.32 69.43 59.28 69.24 59.28 69.05L59.28 67.86C59.28 67.41 59.37 66.96 59.54 66.55C59.71 66.13 59.97 65.75 60.28 65.43C60.6 65.11 60.98 64.86 61.4 64.69C61.81 64.52 62.26 64.43 62.71 64.43L63.21 64.43C63.46 64.43 63.72 64.38 63.95 64.28C64.19 64.18 64.4 64.04 64.58 63.86C64.76 63.68 64.91 63.46 65.01 63.22C65.1 62.99 65.15 62.73 65.15 62.48L65.15 61.03C65.2 58.9 66.08 56.88 67.59 55.4C69.11 53.91 71.14 53.08 73.26 53.08C75.38 53.08 77.41 53.91 78.93 55.4C80.45 56.88 81.32 58.9 81.37 61.03L81.37 63.51C81.37 63.65 81.43 63.79 81.54 63.89C81.64 63.99 81.78 64.04 81.92 64.04C82.07 64.04 82.21 63.99 82.31 63.89C82.41 63.79 82.47 63.65 82.48 63.51L82.48 61.03C82.48 59.41 82.05 57.82 81.25 56.41C80.44 55.01 79.28 53.84 77.89 53.03C78.74 52.83 79.54 52.45 80.24 51.94C80.95 51.42 81.54 50.76 81.99 50.01C82.44 49.26 82.73 48.42 82.85 47.55C82.97 46.68 82.91 45.8 82.68 44.95C82.09 42.76 81.27 40.64 80.24 38.61C80.18 38.48 80.06 38.38 79.92 38.34C79.78 38.29 79.63 38.31 79.5 38.37C79.37 38.44 79.27 38.56 79.23 38.7C79.18 38.84 79.19 38.99 79.26 39.12C80.25 41.07 81.04 43.13 81.61 45.24C81.85 46.12 81.86 47.04 81.65 47.92C81.44 48.8 81.02 49.61 80.42 50.29C79.81 50.96 79.05 51.47 78.2 51.78C77.35 52.08 76.44 52.17 75.55 52.03L59.05 49.41C58.27 49.28 57.58 48.85 57.12 48.21C56.66 47.57 56.47 46.78 56.59 46C56.71 45.22 57.14 44.52 57.77 44.06C58.41 43.6 59.2 43.4 59.98 43.52L72.68 45.54C72.82 45.56 72.97 45.52 73.09 45.44C73.2 45.35 73.28 45.22 73.31 45.08C73.33 44.93 73.29 44.78 73.21 44.67C73.12 44.55 72.99 44.47 72.85 44.44L66.31 43.4C66.43 40.81 66.86 38.23 67.56 35.73C70.24 35.65 72.84 34.83 75.09 33.36C77.33 31.89 79.12 29.82 80.27 27.39C83.7 28.97 86.77 31.25 89.26 34.1C91.75 36.95 93.62 40.3 94.73 43.92C96.94 49.73 97.35 56.07 95.91 62.12C95.86 62.34 95.87 62.57 95.93 62.79C95.98 63.01 96.1 63.21 96.25 63.38C96.41 63.54 96.61 63.66 96.82 63.73C97.04 63.8 97.27 63.81 97.49 63.76C102.53 62.76 107.1 60.1 110.49 56.22C114.02 52.73 116.4 48.23 117.3 43.33C117.7 39.77 116.72 36.2 114.57 33.34C112.86 31.15 110.55 29.5 107.93 28.61C106.63 28.24 105.25 28.29 103.98 28.75C102.71 29.21 101.62 30.06 100.86 31.18C100.62 31.53 100.33 31.82 99.99 32.04C99.64 32.27 99.26 32.43 98.85 32.5C98.45 32.58 98.04 32.58 97.63 32.49C97.23 32.41 96.85 32.25 96.51 32.01C96.17 31.78 95.88 31.48 95.66 31.14C95.43 30.8 95.28 30.41 95.2 30C95.12 29.6 95.13 29.18 95.21 28.78C95.29 28.38 95.46 27.99 95.69 27.65C96.84 25.95 98.38 24.56 100.19 23.59C102 22.62 104.01 22.11 106.06 22.09C107.33 22.08 108.59 22.26 109.81 22.63ZM70.21 52.3C69.18 52.66 68.23 53.2 67.39 53.9C67.21 53.2 67.05 52.49 66.91 51.78L66.91 51.78L70.21 52.3Z" stroke="#333B41" stroke-opacity="1.000000" stroke-width="0.700000"/>
	<path id="Vector" d="M71.06 13.63C70.44 13.64 69.85 13.89 69.42 14.34C68.99 14.78 68.75 15.38 68.76 16C68.76 16.63 69.01 17.23 69.45 17.67C69.89 18.11 70.48 18.36 71.11 18.36C71.73 18.36 72.32 18.11 72.76 17.67C73.2 17.23 73.45 16.63 73.45 16C73.45 15.69 73.39 15.38 73.27 15.09C73.16 14.79 72.98 14.53 72.76 14.31C72.53 14.09 72.27 13.91 71.98 13.79C71.69 13.68 71.38 13.62 71.06 13.63ZM71.08 14.75C71.25 14.74 71.41 14.77 71.57 14.84C71.72 14.9 71.86 14.99 71.98 15.11C72.1 15.22 72.19 15.36 72.25 15.52C72.32 15.67 72.35 15.84 72.35 16C72.35 16.17 72.31 16.33 72.25 16.48C72.19 16.63 72.1 16.77 71.98 16.88C71.87 17 71.73 17.09 71.58 17.15C71.43 17.22 71.27 17.25 71.11 17.25C70.94 17.25 70.78 17.22 70.63 17.15C70.48 17.09 70.34 17 70.23 16.88C70.11 16.77 70.02 16.63 69.96 16.48C69.9 16.33 69.87 16.17 69.87 16C69.86 15.68 69.99 15.36 70.22 15.12C70.44 14.89 70.76 14.75 71.08 14.75Z" fill="#333B41" fill-opacity="1.000000" fill-rule="nonzero"/>
	<path id="Vector" d="M69.42 14.34C68.99 14.78 68.75 15.38 68.76 16C68.76 16.63 69.01 17.23 69.45 17.67C69.89 18.11 70.48 18.36 71.11 18.36C71.73 18.36 72.32 18.11 72.76 17.67C73.2 17.23 73.45 16.63 73.45 16C73.45 15.69 73.39 15.38 73.27 15.09C73.16 14.79 72.98 14.53 72.76 14.31C72.53 14.09 72.27 13.91 71.98 13.79C71.69 13.68 71.38 13.62 71.06 13.63C70.44 13.64 69.85 13.89 69.42 14.34ZM71.57 14.84C71.72 14.9 71.86 14.99 71.98 15.11C72.1 15.22 72.19 15.36 72.25 15.52C72.32 15.67 72.35 15.84 72.35 16C72.35 16.17 72.31 16.33 72.25 16.48C72.19 16.63 72.1 16.77 71.98 16.88C71.87 17 71.73 17.09 71.58 17.15C71.43 17.22 71.27 17.25 71.11 17.25C70.94 17.25 70.78 17.22 70.63 17.15C70.48 17.09 70.34 17 70.23 16.88C70.11 16.77 70.02 16.63 69.96 16.48C69.9 16.33 69.87 16.17 69.87 16C69.86 15.68 69.99 15.36 70.22 15.12C70.44 14.89 70.76 14.75 71.08 14.75C71.25 14.74 71.41 14.77 71.57 14.84Z" stroke="#333B41" stroke-opacity="1.000000" stroke-width="0.700000"/>
	<path id="Vector" d="M61.78 13.63C61.16 13.64 60.57 13.89 60.14 14.34C59.71 14.78 59.47 15.38 59.48 16C59.47 16.32 59.52 16.63 59.64 16.92C59.75 17.22 59.92 17.48 60.14 17.71C60.36 17.94 60.62 18.12 60.91 18.24C61.2 18.36 61.51 18.42 61.82 18.42C62.13 18.42 62.44 18.36 62.73 18.24C63.02 18.12 63.28 17.94 63.5 17.71C63.72 17.48 63.89 17.22 64.01 16.92C64.12 16.63 64.17 16.32 64.16 16C64.17 15.69 64.11 15.38 63.99 15.09C63.87 14.8 63.69 14.53 63.47 14.31C63.25 14.09 62.99 13.91 62.7 13.8C62.4 13.68 62.09 13.62 61.78 13.63ZM61.8 14.75C61.97 14.74 62.13 14.78 62.28 14.84C62.44 14.9 62.58 14.99 62.69 15.11C62.81 15.23 62.9 15.36 62.97 15.52C63.03 15.67 63.06 15.84 63.06 16C63.06 16.17 63.04 16.33 62.97 16.49C62.91 16.64 62.82 16.78 62.71 16.9C62.59 17.02 62.46 17.12 62.3 17.18C62.15 17.25 61.99 17.28 61.82 17.28C61.66 17.28 61.49 17.25 61.34 17.18C61.19 17.12 61.05 17.02 60.93 16.9C60.82 16.78 60.73 16.64 60.67 16.49C60.61 16.33 60.58 16.17 60.58 16C60.58 15.68 60.71 15.36 60.93 15.12C61.16 14.89 61.47 14.75 61.8 14.75Z" fill="#333B41" fill-opacity="1.000000" fill-rule="nonzero"/>
	<path id="Vector" d="M60.14 14.34C59.71 14.78 59.47 15.38 59.48 16C59.47 16.32 59.52 16.63 59.64 16.92C59.75 17.22 59.92 17.48 60.14 17.71C60.36 17.94 60.62 18.12 60.91 18.24C61.2 18.36 61.51 18.42 61.82 18.42C62.13 18.42 62.44 18.36 62.73 18.24C63.02 18.12 63.28 17.94 63.5 17.71C63.72 17.48 63.89 17.22 64.01 16.92C64.12 16.63 64.17 16.32 64.16 16C64.17 15.69 64.11 15.38 63.99 15.09C63.87 14.8 63.69 14.53 63.47 14.31C63.25 14.09 62.99 13.91 62.7 13.8C62.4 13.68 62.09 13.62 61.78 13.63C61.16 13.64 60.57 13.89 60.14 14.34ZM62.28 14.84C62.44 14.9 62.58 14.99 62.69 15.11C62.81 15.23 62.9 15.36 62.97 15.52C63.03 15.67 63.06 15.84 63.06 16C63.06 16.17 63.04 16.33 62.97 16.49C62.91 16.64 62.82 16.78 62.71 16.9C62.59 17.02 62.46 17.12 62.3 17.18C62.15 17.25 61.99 17.28 61.82 17.28C61.66 17.28 61.49 17.25 61.34 17.18C61.19 17.12 61.05 17.02 60.93 16.9C60.82 16.78 60.73 16.64 60.67 16.49C60.61 16.33 60.58 16.17 60.58 16C60.58 15.68 60.71 15.36 60.93 15.12C61.16 14.89 61.47 14.75 61.8 14.75C61.97 14.74 62.13 14.78 62.28 14.84Z" stroke="#333B41" stroke-opacity="1.000000" stroke-width="0.700000"/>
	<path id="Vector" d="M62.49 27.82C62.94 28.46 63.54 28.98 64.23 29.34C64.92 29.7 65.68 29.89 66.46 29.89C67.24 29.89 68.01 29.7 68.7 29.34C69.39 28.98 69.98 28.46 70.43 27.82C70.51 27.7 70.55 27.55 70.52 27.41C70.5 27.27 70.41 27.14 70.3 27.05C70.18 26.97 70.03 26.94 69.89 26.96C69.74 26.98 69.61 27.06 69.53 27.18C69.18 27.67 68.72 28.08 68.19 28.35C67.66 28.63 67.06 28.78 66.46 28.78C65.86 28.78 65.27 28.63 64.74 28.35C64.2 28.08 63.74 27.67 63.4 27.18C63.31 27.06 63.18 26.98 63.04 26.96C62.9 26.94 62.75 26.97 62.63 27.05C62.51 27.14 62.43 27.27 62.41 27.41C62.38 27.55 62.41 27.7 62.49 27.82Z" fill="#333B41" fill-opacity="1.000000" fill-rule="nonzero"/>
	<path id="Vector" d="M64.23 29.34C64.92 29.7 65.68 29.89 66.46 29.89C67.24 29.89 68.01 29.7 68.7 29.34C69.39 28.98 69.98 28.46 70.43 27.82C70.51 27.7 70.55 27.55 70.52 27.41C70.5 27.27 70.41 27.14 70.3 27.05C70.18 26.97 70.03 26.94 69.89 26.96C69.74 26.98 69.61 27.06 69.53 27.18C69.18 27.67 68.72 28.08 68.19 28.35C67.66 28.63 67.06 28.78 66.46 28.78C65.86 28.78 65.27 28.63 64.74 28.35C64.2 28.08 63.74 27.67 63.4 27.18C63.31 27.06 63.18 26.98 63.04 26.96C62.9 26.94 62.75 26.97 62.63 27.05C62.51 27.14 62.43 27.27 62.41 27.41C62.38 27.55 62.41 27.7 62.49 27.82C62.94 28.46 63.54 28.98 64.23 29.34Z" stroke="#333B41" stroke-opacity="1.000000" stroke-width="0.700000"/>
</svg>
