<svg width="108.000000" height="60.000000" viewBox="0 0 108 60" fill="none" xmlns="http://www.w3.org/2000/svg" xmlns:xlink="http://www.w3.org/1999/xlink">
	<desc>
			Created with Pixso.
	</desc>
	<defs/>
	<path id="pay" d="M46.97 25.03C46.91 25.01 46.86 24.99 46.81 24.97C31.54 19.23 24.43 29.93 24.41 29.97C24.26 30.18 24.04 30.36 23.77 30.44L5.64 36.3C4.61 36.63 3.78 37.28 3.22 38.11C2.67 38.93 2.4 39.95 2.48 41.03L3.66 55.79C3.68 56.12 3.78 56.42 3.94 56.67C4.11 56.92 4.34 57.13 4.63 57.29C4.93 57.45 5.23 57.53 5.53 57.53C5.82 57.52 6.13 57.44 6.42 57.28L6.42 57.28L24.72 47.12C24.91 47.01 25.13 46.95 25.37 46.96C25.42 46.97 41.21 47.58 47.1 48.68C52.33 49.67 54.55 47.74 54.56 47.74L54.56 47.74C54.62 47.69 54.69 47.64 54.76 47.6L72.44 37.97L47.87 37.97L47.87 37.97C47.76 37.97 47.65 37.95 47.54 37.92C46.61 37.66 46 37.03 45.68 36.27C45.5 35.83 45.43 35.35 45.46 34.89C45.49 34.41 45.64 33.94 45.9 33.53C46.28 32.94 46.88 32.49 47.69 32.37L63.57 27.4C64.44 27.13 64.98 26.39 65.15 25.58C65.22 25.22 65.22 24.84 65.14 24.48C65.06 24.15 64.91 23.84 64.69 23.59C64.17 22.99 63.19 22.66 61.68 22.93L48.23 25.33L48.23 25.33C48.01 25.37 47.78 25.35 47.56 25.26C47.36 25.18 47.16 25.1 46.97 25.03ZM46.1 22.11L46.1 5.86C46.1 4.25 46.75 2.78 47.81 1.72C48.87 0.65 50.34 0 51.95 0L102.14 0C103.76 0 105.22 0.65 106.28 1.72C107.34 2.78 108 4.25 108 5.86L108 32.11C108 33.72 107.34 35.19 106.28 36.25C105.22 37.31 103.76 37.97 102.14 37.97L77.6 37.97L56.04 49.71C55.46 50.15 52.38 52.19 46.65 51.11C41.41 50.13 27.92 49.54 25.62 49.45L7.61 59.44L7.61 59.45C6.96 59.81 6.25 59.99 5.54 59.99C4.83 60 4.12 59.82 3.46 59.47C2.8 59.11 2.26 58.62 1.88 58.03C1.49 57.43 1.25 56.74 1.19 55.99L0.02 41.23C-0.11 39.58 0.32 38.02 1.18 36.73C2.03 35.45 3.31 34.45 4.88 33.95L22.63 28.22C24.09 26.31 31.75 17.52 46.1 22.11ZM77.29 35.49L77.3 35.49L102.14 35.49C103.07 35.49 103.92 35.11 104.53 34.5C105.14 33.88 105.52 33.04 105.52 32.11L105.52 13.1L48.57 13.1L48.57 22.76L61.26 20.49C63.75 20.05 65.49 20.76 66.54 21.95C67.04 22.52 67.38 23.21 67.54 23.93C67.61 24.24 67.65 24.56 67.66 24.88L71.35 24.88C71.69 24.88 71.97 25.15 71.97 25.5C71.97 25.84 71.69 26.12 71.35 26.12L67.55 26.12C67.36 27.02 66.93 27.88 66.27 28.56C66.35 28.67 66.41 28.81 66.41 28.95C66.41 29.3 66.13 29.57 65.79 29.57L64.82 29.57C64.66 29.65 64.49 29.71 64.31 29.76L48.33 34.76C48.24 34.79 48.15 34.8 48.06 34.81C48.02 34.82 47.99 34.84 47.97 34.86C47.94 34.91 47.93 34.98 47.92 35.06C47.91 35.15 47.93 35.24 47.96 35.32C47.99 35.39 48.04 35.45 48.1 35.49L77.29 35.49ZM92.99 23.45C93.91 23.45 94.77 23.68 95.52 24.09C95.83 23.93 96.15 23.79 96.49 23.69C96.99 23.53 97.51 23.45 98.05 23.45C99.52 23.45 100.86 24.05 101.83 25.02C102.79 25.99 103.39 27.33 103.39 28.81C103.39 30.28 102.79 31.62 101.83 32.59C100.86 33.56 99.52 34.16 98.05 34.16C97.51 34.16 96.99 34.08 96.49 33.92C96.15 33.82 95.83 33.68 95.52 33.52C94.77 33.93 93.91 34.16 92.99 34.16C91.52 34.16 90.18 33.56 89.22 32.59C88.25 31.62 87.65 30.28 87.65 28.81C87.65 27.33 88.25 25.99 89.22 25.02C90.18 24.05 91.52 23.45 92.99 23.45ZM96.99 25.25C97.83 26.2 98.34 27.44 98.34 28.81C98.34 30.17 97.83 31.41 96.99 32.36C97.32 32.45 97.67 32.51 98.05 32.51C99.07 32.51 99.99 32.09 100.66 31.42C101.33 30.75 101.74 29.83 101.74 28.81C101.74 27.78 101.33 26.86 100.66 26.19C99.99 25.52 99.07 25.1 98.05 25.1C97.67 25.1 97.32 25.16 96.99 25.25ZM95.6 26.19C94.94 25.52 94.01 25.1 92.99 25.1C91.97 25.1 91.05 25.52 90.38 26.19C89.71 26.86 89.3 27.78 89.3 28.81C89.3 29.83 89.71 30.75 90.38 31.42C91.05 32.09 91.97 32.51 92.99 32.51C94.01 32.51 94.94 32.09 95.6 31.42C96.27 30.75 96.69 29.83 96.69 28.81C96.69 27.78 96.27 26.86 95.6 26.19ZM68.6 29.57C68.26 29.57 67.98 29.3 67.98 28.95C67.98 28.61 68.26 28.33 68.6 28.33L70.71 28.33C71.05 28.33 71.33 28.61 71.33 28.95C71.33 29.3 71.05 29.57 70.71 29.57L68.6 29.57ZM92.59 19.04C92.25 19.04 91.97 18.76 91.97 18.42C91.97 18.08 92.25 17.8 92.59 17.8L100.55 17.8C100.89 17.8 101.17 18.08 101.17 18.42C101.17 18.76 100.89 19.04 100.55 19.04L92.59 19.04ZM74.4 19.04C74.06 19.04 73.78 18.76 73.78 18.42C73.78 18.08 74.06 17.8 74.4 17.8L85.9 17.8C86.24 17.8 86.51 18.08 86.51 18.42C86.51 18.76 86.24 19.04 85.9 19.04L74.4 19.04ZM50.97 19.04C50.63 19.04 50.36 18.76 50.36 18.42C50.36 18.08 50.63 17.8 50.97 17.8L67.75 17.8C68.09 17.8 68.37 18.08 68.37 18.42C68.37 18.76 68.09 19.04 67.75 19.04L50.97 19.04ZM105.52 11.45L105.52 6.69L48.57 6.69L48.57 11.45L105.52 11.45ZM105.42 5.03C105.27 4.43 104.95 3.9 104.53 3.47C103.92 2.86 103.07 2.47 102.14 2.47L51.95 2.47C51.02 2.47 50.17 2.86 49.56 3.47C49.14 3.9 48.82 4.43 48.67 5.03L105.42 5.03Z" fill="#333B41" fill-opacity="1.000000" fill-rule="nonzero"/>
</svg>
