<svg width="86.000000" height="96.000000" viewBox="0 0 86 96" fill="none" xmlns="http://www.w3.org/2000/svg" xmlns:xlink="http://www.w3.org/1999/xlink">
	<desc>
			Created with Pixso.
	</desc>
	<defs/>
	<path id="Vector" d="M38.97 5.26C38.62 4.93 38.27 4.69 37.94 4.52C37.61 4.36 37.24 4.28 36.83 4.28C36.35 4.28 36 4.39 35.76 4.58C35.52 4.78 35.39 5.11 35.39 5.54C35.39 5.85 35.52 6.13 35.78 6.33C36.04 6.55 36.35 6.74 36.74 6.94C37.13 7.14 37.55 7.33 37.99 7.55C38.42 7.77 38.84 8.01 39.23 8.32C39.62 8.62 39.93 8.97 40.19 9.41C40.45 9.85 40.59 10.37 40.59 10.98C40.59 11.92 40.32 12.73 39.82 13.41C39.32 14.08 38.53 14.52 37.53 14.76L37.53 16.81L35.63 16.81L35.63 14.85C35.06 14.78 34.45 14.63 33.81 14.37C33.18 14.11 32.63 13.78 32.18 13.36L33.44 11.42C33.95 11.79 34.43 12.07 34.86 12.27C35.32 12.47 35.78 12.55 36.24 12.55C36.78 12.55 37.2 12.45 37.44 12.23C37.7 12.01 37.83 11.66 37.83 11.2C37.83 10.85 37.7 10.57 37.44 10.33C37.18 10.09 36.87 9.87 36.48 9.65C36.09 9.43 35.67 9.21 35.23 8.99C34.8 8.78 34.38 8.51 33.99 8.21C33.6 7.9 33.29 7.55 33.03 7.14C32.77 6.72 32.63 6.24 32.63 5.65C32.63 4.69 32.9 3.88 33.42 3.25C33.95 2.62 34.69 2.2 35.61 2.03L35.61 0L37.51 0L37.51 1.98C38.14 2.07 38.68 2.27 39.17 2.55C39.65 2.83 40.06 3.18 40.45 3.6L38.97 5.26Z" fill="#333B41" fill-opacity="1.000000" fill-rule="nonzero"/>
	<path id="Vector" d="M86 76L82.4 73.78L74.38 88.16L78.25 90.09L86 76Z" fill="#333B41" fill-opacity="1.000000" fill-rule="evenodd"/>
	<path id="Vector" d="M80.47 73.23C71.07 62.45 62.77 65.21 51.72 72.4C42.04 78.76 34.85 74.34 27.67 77.38C26.01 78.21 23.52 80.14 25.73 82.08C26.84 82.91 31.26 83.74 32.64 83.46C40.11 81.8 42.32 85.12 53.65 82.91C50.33 85.39 39.55 83.74 32.92 84.56C27.67 85.67 19.1 81.52 26.01 76.82C22.97 75.44 20.2 74.61 16.88 74.34C13.57 71.85 8.31 68.81 5.55 67.7C3.34 66.32 -2.19 66.87 1.4 70.47C5 73.78 14.67 81.25 16.61 82.35C24.35 87.05 31.54 90.37 39 94.52C39 94.52 41.49 95.9 46.46 93.96C50.06 92.3 66.09 83.46 69.96 84.84C72.17 85.67 73.28 86.22 73.28 86.22L80.47 73.23Z" fill="#FFFFFF" fill-opacity="0" fill-rule="evenodd"/>
	<path id="Vector" d="M51.72 72.4C42.04 78.76 34.85 74.34 27.67 77.38C26.01 78.21 23.52 80.14 25.73 82.08C26.84 82.91 31.26 83.74 32.64 83.46C40.11 81.8 42.32 85.12 53.65 82.91C50.33 85.39 39.55 83.74 32.92 84.56C27.67 85.67 19.1 81.52 26.01 76.82C22.97 75.44 20.2 74.61 16.88 74.34C13.57 71.85 8.31 68.81 5.55 67.7C3.34 66.32 -2.19 66.87 1.4 70.47C5 73.78 14.67 81.25 16.61 82.35C24.35 87.05 31.54 90.37 39 94.52C39 94.52 41.49 95.9 46.46 93.96C50.06 92.3 66.09 83.46 69.96 84.84C72.17 85.67 73.28 86.22 73.28 86.22L80.47 73.23C71.07 62.45 62.77 65.21 51.72 72.4Z" stroke="#333B41" stroke-opacity="1.000000" stroke-width="1.500000"/>
	<path id="Vector" d="M33.75 72.4C34.3 71.3 34.85 70.47 35.68 70.19C36.51 69.91 36.79 70.47 37.34 71.02C37.89 71.85 38.17 72.12 39 72.68C39.28 72.95 39.83 72.95 40.11 72.95L39.55 72.68C38.72 72.12 38.17 71.57 38.45 70.47C38.45 70.19 38.17 69.64 38.72 69.64C39.28 69.91 40.11 70.47 40.94 70.47C40.94 70.47 41.76 70.74 41.49 70.47C41.49 70.19 40.94 69.91 40.66 69.64C39 68.25 39 67.98 39 66.04C39.28 63.28 38.17 61.07 36.24 59.13C31.81 54.71 33.75 48.63 37.07 42.82C40.11 37.57 42.87 36.74 39.83 30.38C38.72 27.62 36.79 24.85 36.51 23.19C36.24 24.85 37.34 27.34 38.45 29.83C40.94 35.36 40.38 35.91 36.79 40.89C32.92 45.86 30.15 51.12 31.81 56.64C32.92 60.51 38.45 64.38 35.68 66.87C34.3 67.98 32.37 70.74 32.09 72.4C31.81 73.23 31.81 73.23 31.54 73.78C31.26 74.06 31.54 74.06 31.81 74.06C33.2 73.78 33.2 73.23 33.75 72.4Z" fill="#333B41" fill-opacity="1.000000" fill-rule="evenodd"/>
	<path id="Vector" d="M40.11 62.17C47.02 62.17 52.55 53.33 52.27 47.25C44.53 49.46 40.11 51.67 39.28 54.99C38.72 56.64 39 57.75 40.38 58.03C41.21 57.75 43.42 54.16 47.57 52.5C43.98 55.81 43.42 57.75 40.38 60.51L40.11 60.51C39 59.96 37.89 59.13 37.62 58.03C37.06 56.92 37.06 55.54 37.34 54.16C38.45 51.12 41.49 48.63 46.74 46.69C49.5 45.86 51.99 44.76 54.76 44.76C53.65 50.84 52.82 55.81 49.23 59.69C44.81 64.11 40.38 62.17 40.11 62.17Z" fill="#FFFFFF" fill-opacity="0" fill-rule="nonzero"/>
	<path id="Vector" d="M52.22 48.82C51.77 53.17 48.86 58.34 44.84 60.77C43.38 61.65 41.79 62.17 40.11 62.17C40.13 62.17 40.21 62.19 40.33 62.23C41 62.42 43.02 63 45.49 62.13C46.67 61.71 47.95 60.96 49.23 59.69C52.52 56.14 53.49 51.66 54.48 46.26C54.57 45.77 54.66 45.27 54.76 44.76C54.23 44.76 53.72 44.8 53.21 44.87C51.04 45.17 48.98 46.02 46.74 46.69C41.49 48.63 38.45 51.12 37.34 54.16C37.06 55.54 37.06 56.92 37.62 58.03C37.89 59.13 39 59.96 40.11 60.51L40.38 60.51C41.62 59.39 42.44 58.41 43.23 57.41C44.37 55.95 45.44 54.47 47.57 52.5C45.09 53.49 43.31 55.17 42.09 56.42C41.27 57.27 40.72 57.92 40.38 58.03C39 57.75 38.72 56.64 39.28 54.99C40.05 51.89 43.96 49.75 50.78 47.68C51.26 47.54 51.76 47.39 52.27 47.25C52.29 47.75 52.27 48.28 52.22 48.82Z" fill="#333B41" fill-opacity="1.000000" fill-rule="evenodd"/>
	<path id="Vector" d="M32.92 41.16C26.84 41.44 22.14 33.7 22.41 28.45C29.05 30.38 32.92 32.32 33.75 35.08C34.3 36.46 33.75 37.57 32.64 37.85C31.81 37.57 29.88 34.53 26.28 33.15C29.6 35.91 30.15 37.57 32.64 40.06L32.92 39.78C34.02 39.5 34.85 38.95 35.13 37.85C35.68 36.74 35.68 35.63 35.13 34.53C34.3 31.76 31.81 29.55 27.11 28.17C24.62 27.34 22.69 26.51 20.2 26.24C21.31 31.49 21.86 35.91 25.18 39.23C28.77 43.1 32.64 41.44 32.92 41.16Z" fill="#FFFFFF" fill-opacity="0" fill-rule="nonzero"/>
	<path id="Vector" d="M33.59 34.64C33.65 34.78 33.7 34.93 33.75 35.08C33.77 35.13 33.79 35.18 33.8 35.23C34.26 36.54 33.71 37.58 32.64 37.85C32.64 37.84 32.63 37.84 32.63 37.84C31.79 37.53 29.86 34.52 26.28 33.15C29.09 35.49 29.92 37.03 31.62 38.96C31.64 38.99 31.66 39.01 31.68 39.04C31.86 39.24 32.05 39.45 32.25 39.66C32.38 39.79 32.51 39.92 32.64 40.06L32.92 39.78C33.08 39.74 33.24 39.69 33.39 39.64C34.26 39.33 34.89 38.79 35.13 37.85Q35.54 37.02 35.54 36.19Q35.54 35.42 35.19 34.65Q35.18 34.64 35.18 34.63Q35.15 34.58 35.13 34.53C35.09 34.38 35.04 34.23 34.98 34.09C34.03 31.53 31.56 29.48 27.11 28.17C25.18 27.53 23.58 26.88 21.79 26.49C21.28 26.39 20.75 26.3 20.2 26.24C20.31 26.76 20.42 27.28 20.52 27.79C20.66 28.49 20.8 29.18 20.94 29.85C21.35 31.76 21.79 33.53 22.48 35.15C23.12 36.65 23.96 38.01 25.18 39.23C25.86 39.96 26.54 40.49 27.21 40.87C29.16 41.98 30.97 41.83 32.01 41.55C32.52 41.41 32.84 41.24 32.92 41.16C32.46 41.18 32 41.16 31.55 41.09C30.29 40.9 29.09 40.37 28.02 39.61C26.28 38.37 24.83 36.53 23.85 34.53C23.12 33.05 22.64 31.49 22.47 30.03C22.45 29.89 22.44 29.75 22.43 29.61C22.4 29.22 22.39 28.82 22.41 28.45C22.93 28.6 23.42 28.75 23.9 28.9C29.29 30.58 32.58 32.31 33.59 34.64Z" fill="#333B41" fill-opacity="1.000000" fill-rule="evenodd"/>
	<path id="Vector" d="M43.15 31.49C48.12 31.49 52.27 25.13 52.27 20.43C46.19 22.09 43.15 23.75 42.32 26.24C42.04 27.34 42.32 28.17 43.15 28.45C43.98 28.45 45.63 25.68 48.67 24.3C45.91 26.79 45.36 28.17 43.15 30.38C42.04 30.11 41.49 29.28 41.21 28.45C40.66 27.62 40.66 26.51 40.93 25.68C41.76 23.2 43.98 21.54 47.85 20.15C50.06 19.33 51.99 18.77 53.93 18.5C53.1 22.92 52.54 26.79 49.78 29.83C46.46 33.15 43.15 31.49 43.15 31.49Z" fill="#FFFFFF" fill-opacity="0" fill-rule="nonzero"/>
	<path id="Vector" d="M52.12 22.03C51.75 24.16 50.68 26.43 49.18 28.21C48.89 28.56 48.57 28.9 48.24 29.21C47.08 30.31 45.72 31.1 44.27 31.38C43.9 31.45 43.53 31.49 43.15 31.49C43.15 31.49 43.43 31.63 43.9 31.75C44.99 32.01 47.1 32.16 49.28 30.3C49.44 30.15 49.61 30 49.78 29.83C49.98 29.61 50.17 29.39 50.35 29.16C52.33 26.6 52.99 23.52 53.64 20.06C53.68 19.82 53.72 19.59 53.77 19.35C53.82 19.07 53.87 18.78 53.93 18.5C53.87 18.5 53.82 18.51 53.77 18.52C53.61 18.54 53.45 18.57 53.3 18.6C52.98 18.65 52.67 18.71 52.35 18.78C50.92 19.09 49.46 19.55 47.85 20.15C44.3 21.42 42.15 22.92 41.17 25.07C41.08 25.27 41 25.47 40.93 25.68C40.66 26.51 40.66 27.62 41.21 28.45C41.29 28.69 41.4 28.94 41.54 29.17C41.85 29.7 42.33 30.15 43.06 30.36C43.09 30.37 43.12 30.38 43.15 30.38C43.29 30.24 43.42 30.1 43.55 29.97C43.58 29.94 43.6 29.91 43.63 29.89C45.46 27.95 46.12 26.6 48.67 24.3C45.63 25.68 43.98 28.45 43.15 28.45C43.09 28.43 43.03 28.41 42.98 28.38C42.89 28.34 42.81 28.29 42.74 28.23C42.23 27.85 42.09 27.13 42.32 26.24C42.38 26.05 42.45 25.87 42.54 25.7C43.51 23.71 46.09 22.26 50.75 20.86C51.16 20.74 51.59 20.62 52.03 20.5C52.11 20.48 52.19 20.45 52.27 20.43C52.27 20.95 52.22 21.48 52.12 22.03Z" fill="#333B41" fill-opacity="1.000000" fill-rule="evenodd"/>
</svg>
